<?xml version="1.0" encoding="utf-8"?>
<!-- Generator: Adobe Illustrator 16.0.3, SVG Export Plug-In . SVG Version: 6.00 Build 0)  -->
<!DOCTYPE svg PUBLIC "-//W3C//DTD SVG 1.1//EN" "http://www.w3.org/Graphics/SVG/1.1/DTD/svg11.dtd">
<svg version="1.1" id="Capa_1" xmlns="http://www.w3.org/2000/svg" xmlns:xlink="http://www.w3.org/1999/xlink" x="0px" y="0px"
	 width="100px" height="100px" viewBox="0 0 100 100" enable-background="new 0 0 100 100" xml:space="preserve">
<path fill="#BD0E12" d="M4.233,67.418c0.615-0.553,1.258-1.084,1.843-1.668C26.809,45.028,47.537,24.3,68.262,3.569
	c0.586-0.586,1.113-1.231,1.668-1.847c0.832,0,1.662,0,2.494-0.001c1.195,1.669,0.94,3.598,0.827,5.434
	c-0.127,2.039,0.472,3.044,2.651,2.727c0.61-0.089,1.244-0.015,1.867-0.013c3.324,0.009,3.774,0.462,3.793,3.875
	c0.022,4.494-0.386,4.192,4.106,4.206c3.571,0.011,4.147,0.551,4.177,4.058c0.039,4.641-0.353,4.188,4.301,4.22
	c0.689,0.007,1.402-0.004,2.063,0.165c1.609,0.408,2.16,1.831,1.233,3.204c-0.417,0.624-1,1.143-1.537,1.68
	C75.24,51.945,54.569,72.612,33.905,93.286c-0.634,0.635-1.209,1.327-1.813,1.99c-0.833,0.003-1.663,0.003-2.498,0.002
	c-1.258-1.8-0.897-3.866-0.824-5.832c0.066-1.844-0.625-2.357-2.409-2.353c-4.927,0.015-6.163,1.299-5.895-5.848
	c0.059-1.589-0.546-2.245-2.167-2.207c-5.163,0.123-6.359,0.723-6.118-6.024c0.063-1.733-0.654-2.306-2.325-2.272
	c-1.903,0.039-3.896,0.404-5.626-0.828C4.231,69.082,4.231,68.252,4.233,67.418 M40.818,80.348c0.334-0.281,0.777-0.606,1.161-0.986
	C55.259,66.09,68.52,52.808,81.824,39.565c1.063-1.06,1.197-1.71,0.056-2.836c-6.417-6.319-12.771-12.699-19.105-19.1
	c-0.969-0.979-1.609-1.164-2.682-0.085C46.75,30.944,33.374,44.309,19.982,57.662c-0.865,0.862-0.977,1.459-0.052,2.379
	c6.542,6.485,13.04,13.018,19.559,19.526C39.824,79.902,40.125,80.313,40.818,80.348 M90.234,30.859
	c-0.521-0.597-1.114-0.371-1.635-0.413c-2.278-0.182-2.854-0.818-2.998-3.085c-0.104-1.628,0.737-3.66-0.466-4.78
	c-1.172-1.094-3.183-0.346-4.818-0.396c-1.947-0.064-2.972-0.922-2.969-2.908c0.002-0.692-0.006-1.384-0.008-2.075
	c-0.002-3.309-0.002-3.309-3.234-3.311c-4.52-0.004-4.519-0.005-5.174-4.334c-0.014-0.088-0.199-0.152-0.653-0.478
	c-0.967,1.072-1.96,2.213-2.999,3.31c-0.656,0.692-0.655,1.295,0.014,1.964c6.607,6.599,13.207,13.203,19.809,19.804
	c0.533,0.533,1.126,0.913,1.792,0.256C88.051,33.268,89.354,32.248,90.234,30.859 M33.054,87.57
	c0.245,0.181,0.489,0.363,0.733,0.544c1.013-1.201,2.002-2.428,3.047-3.603c0.682-0.769,0.407-1.353-0.202-1.961
	c-6.556-6.553-13.108-13.106-19.662-19.659c-0.511-0.512-1.109-1.013-1.781-0.342c-1.181,1.181-2.63,2.144-3.466,3.871
	c0.606,0.057,1.011,0.106,1.416,0.132c2.659,0.158,3.227,0.751,3.263,3.432c0.017,1.036,0.049,2.075,0,3.11
	c-0.057,1.229,0.453,1.78,1.701,1.741c1.313-0.041,2.629-0.018,3.942,0.018c1.66,0.048,2.557,0.922,2.608,2.59
	c0.041,1.312,0.062,2.626,0.021,3.939c-0.038,1.224,0.458,1.787,1.712,1.733c1.104-0.052,2.214-0.022,3.318,0
	c2.44,0.05,3.076,0.657,3.239,3.033C32.978,86.621,33.018,87.098,33.054,87.57"/>
<path fill="#BD0E12" d="M59.494,54.223c-0.852-0.021-1.442-0.441-1.764-1.212c-0.365-0.884-0.06-1.624,0.57-2.263
	c2.383-2.409,4.775-4.809,7.156-7.219c1.362-1.377,2.669-2.812,4.082-4.134c1.058-0.992,0.994-1.771-0.025-2.753
	c-2.437-2.356-4.803-4.783-7.196-7.184c-0.983-0.987-1.875-2.088-0.641-3.39c1.337-1.408,2.49-0.476,3.534,0.564
	c2.498,2.491,5.023,4.955,7.485,7.483c2.596,2.663,2.578,5.3-0.066,7.984c-3.591,3.647-7.234,7.244-10.858,10.859
	C61.133,53.592,60.516,54.275,59.494,54.223"/>
<path fill="#BD0E12" d="M54.313,59.753c-1.41-0.12-2.263-0.765-2.183-1.955c0.098-1.443,1.061-2.415,2.537-2.516
	c1.219-0.084,2.011,0.736,1.968,1.905C56.574,58.677,55.49,59.413,54.313,59.753"/>
</svg>
