<?xml version="1.0" encoding="utf-8"?>
<!-- Generator: Adobe Illustrator 16.0.3, SVG Export Plug-In . SVG Version: 6.00 Build 0)  -->
<!DOCTYPE svg PUBLIC "-//W3C//DTD SVG 1.1//EN" "http://www.w3.org/Graphics/SVG/1.1/DTD/svg11.dtd">
<svg version="1.1" id="Capa_1" xmlns="http://www.w3.org/2000/svg" xmlns:xlink="http://www.w3.org/1999/xlink" x="0px" y="0px"
	 width="100px" height="100px" viewBox="0 0 100 100" enable-background="new 0 0 100 100" xml:space="preserve">
<path fill="#60B632" d="M69.416,92.052c-5.865,0.359-13.807-0.532-21.756-0.288c-3.017,0.092-6.018,0.291-9.037-0.006
	c-1.289-0.126-2.529-0.354-3.725-0.808c-3.061-1.169-3.865-4.313-1.604-6.709c0.923-0.978,1.013-1.608,0.343-2.802
	c-1.97-3.518-2.343-7.366-1.781-11.311c0.562-3.938,1.815-7.68,3.563-11.227c0.765-1.555,0.238-1.646-1.143-1.766
	c-3.168-0.277-6.361-0.324-9.468-1.229c-7.293-2.129-12.429-7.461-13.399-15.405c-0.5-4.11-0.554-8.196,0.608-12.243
	c1.472-5.115,4.837-8.279,9.808-9.905c2.287-0.75,4.639-1.022,7.025-1.055c5.98-0.085,11.96,0.014,17.93,0.365
	c1.719,0.102,2.504-0.492,2.967-2.102c0.957-3.343,2.076-6.641,3.123-9.958c0.289-0.918,0.633-1.757,1.769-1.897
	c1.233-0.151,1.974,0.478,2.478,1.504c1.326,2.708,2.688,5.4,3.955,8.132c0.528,1.139,1.03,1.621,2.357,0.967
	c2.287-1.122,4.667-2.067,7.021-3.047c2.574-1.069,3.848-0.164,3.573,2.584c-0.207,2.075-0.484,4.146-0.838,6.2
	c-0.209,1.199,0.131,1.64,1.358,1.808c2.757,0.378,5.492,0.904,8.229,1.413c1.668,0.312,2.378,1.803,1.5,3.299
	c-1.232,2.099-2.532,4.162-3.897,6.176c-0.622,0.919-0.468,1.388,0.453,1.892c1.782,0.971,3.537,1.994,5.275,3.043
	c2.278,1.374,2.445,2.478,0.634,4.361c-1.809,1.883-3.638,3.75-5.532,5.55c-0.965,0.919-0.856,1.423,0.301,2.017
	c1.545,0.794,3.026,1.711,4.523,2.599c2.189,1.295,2.382,2.435,0.866,4.478c-1.692,2.282-3.305,4.621-5.013,6.893
	c-0.744,0.988-0.479,1.324,0.626,1.609c4.714,1.209,4.263,1.271,3.563,5.897c-0.482,3.198-0.554,3.187,2.655,3.446
	c4.308,0.349,4.402,0.359,4.037,4.65c-0.29,3.404-0.872,6.783-1.265,10.18c-0.195,1.703-1.063,2.33-2.759,2.42
	C82.997,92.082,77.249,91.952,69.416,92.052 M36.024,71.27c5.503-6.976,17.123-9.543,20.768-4.68
	c-2.512-0.07-4.872,0.124-7.181,0.712c-3.365,0.859-6.511,2.105-8.853,4.849c-2.976,3.488-2.783,6.49,1.409,8.084
	c0.93,0.353,1.507,1.132,1.381,2.195c-0.124,1.039-0.836,1.618-1.795,1.909c-0.557,0.168-1.159,0.226-1.676,0.47
	c-1.191,0.56-2.599,0.851-3.352,2.276c0.359,0.108,0.57,0.199,0.791,0.235c4.403,0.72,8.807,0.16,13.205-0.045
	c1.117-0.051,2.079-0.627,2.932-1.398c1.971-1.788,2.869-4.173,3.853-6.536c0.289-0.696,0.178-2.073,1.093-1.916
	c1.096,0.188,0.674,1.528,0.723,2.392c0.153,2.766-0.838,5.273-2.009,7.752h25.479c-1.018-1.109-1.919-2.154-2.882-3.139
	c-4.364-4.464-7.74-9.535-9.591-15.544c-1.718-5.573-1.043-11.295-0.865-16.956c0.147-4.662,0.106-9.283-0.819-13.859
	c-1.941-9.599-7.698-14.269-16.81-15.63c-7.276-1.087-14.696-1.076-22.063-1.026c-2.973,0.02-5.986,0.457-8.77,1.886
	c-3.74,1.919-4.91,5.393-5.459,9.063c-0.545,3.678-0.465,7.418,0.977,10.983c0.369,0.91,0.493,1.976,1.699,2.239
	c-0.381,1.84,1.15,2.599,2.201,3.391c2.084,1.57,4.443,2.645,7.068,3.193c3.737,0.78,7.497,0.742,11.268,0.729
	c1.132-0.004,2.283,0.006,2.918,1.135c0.666,1.183,0.065,2.189-0.553,3.23C38.605,61.477,36.744,65.938,36.024,71.27 M87.565,85.591
	c0.201-1.384,0.323-2.516,0.537-3.632c0.635-3.296,0.421-3.26-2.47-3.264c-0.577-0.002-1.152-0.135-1.729-0.174
	c-2.938-0.207-3.46-0.854-2.969-3.705c0.058-0.342,0.145-0.685,0.157-1.029c0.047-1.387,1.219-2.823,0.51-4.043
	c-0.762-1.311-2.612-0.954-3.947-1.445c-2.419-0.888-2.905-2.002-1.415-4.172c1.77-2.576,3.624-5.102,5.591-7.531
	c0.903-1.113,0.697-1.547-0.447-2.166c-1.833-0.994-3.617-2.091-5.354-3.242c-1.887-1.252-1.957-2.333-0.386-3.923
	c1.668-1.693,3.37-3.351,5.023-5.058c1.705-1.759,1.69-1.781-0.384-3.016c-1.396-0.828-2.824-1.606-4.199-2.47
	c-1.759-1.106-1.929-1.977-0.821-3.732c1.023-1.617,2.054-3.23,3.091-4.84c0.512-0.797,0.412-1.196-0.627-1.366
	c-2.229-0.362-4.436-0.866-6.661-1.257c-2.05-0.359-2.636-0.946-2.479-3.007c0.118-1.555,0.457-3.091,0.673-4.64
	c0.141-1.019-0.136-1.423-1.237-0.915c-1.578,0.729-3.21,1.336-4.814,2.011c-3.062,1.291-3.771,0.971-5.153-2.135
	c-0.719-1.612-1.579-3.159-2.478-4.931c-0.901,1.424-1.118,2.755-1.573,3.984c-0.86,2.323-0.774,2.469,1.597,3.073
	c10.963,2.792,16.095,10.149,17.617,20.417c0.875,5.886,0.822,11.825,0.271,17.709c-0.699,7.457,1.323,13.991,5.689,19.905
	C81.514,80.162,84.254,82.964,87.565,85.591"/>
<path fill="#60B632" d="M41.55,31.253c-1.679-0.078-2.892,0.136-3.035,1.737c-0.138,1.539,0.925,2.081,2.248,2.321
	c1.702,0.308,3.392,0.692,5.099,0.973c1.213,0.2,2.248-0.185,2.564-1.474c0.326-1.329-0.286-2.222-1.614-2.622
	C44.978,31.638,43.08,31.458,41.55,31.253"/>
<path fill="#60B632" d="M50.326,62.615c2.797-0.123,5.325-2.146,7.757-4.35c0.279-0.254,0.788-0.479,0.562-0.964
	c-0.223-0.475-0.707-0.25-1.088-0.192c-2.353,0.361-4.695,0.758-7.05,1.089c-1.042,0.149-2.168,0.284-2.556-1.113
	c-0.355-1.292,0.396-1.831,1.451-2.362c1.719-0.867,3.271-2,4.189-3.795c0.163-0.318,0.311-0.659,0.15-0.994
	c-0.159-0.331-0.479-0.254-0.75-0.124c-2.156,1.025-4.524,1.461-6.715,2.37c-1.762,0.729-2.681,2.153-2.764,4.082
	C43.357,59.84,46.052,62.641,50.326,62.615"/>
</svg>
