<?xml version="1.0" encoding="utf-8"?>
<!-- Generator: Adobe Illustrator 16.0.3, SVG Export Plug-In . SVG Version: 6.00 Build 0)  -->
<!DOCTYPE svg PUBLIC "-//W3C//DTD SVG 1.1//EN" "http://www.w3.org/Graphics/SVG/1.1/DTD/svg11.dtd">
<svg version="1.1" id="Capa_1" xmlns="http://www.w3.org/2000/svg" xmlns:xlink="http://www.w3.org/1999/xlink" x="0px" y="0px"
	 width="100px" height="100px" viewBox="0 0 100 100" enable-background="new 0 0 100 100" xml:space="preserve">
<path fill="#1A2A8F" d="M25.879,61.997c0.222-8.307,0.478-16.615,0.651-24.922c0.104-5.001,1.888-9.274,6.016-12.702
	c1.975-1.64,1.858-2.388-0.402-3.727c-0.798-0.471-1.061-1.127-1.042-1.941c0.081-3.494,0.202-6.988,0.259-10.48
	c0.034-1.895,1.43-2.507,3.013-2.978c4.258-1.268,8.661-1.582,13.029-1.85c6.55-0.403,13.08-0.174,19.408,1.42
	c3.736,0.943,3.88,1.229,3.796,4.797c-0.061,2.407-0.113,4.814-0.198,7.221c-0.058,1.619,0.077,3.181-2.217,3.965
	c-1.393,0.475-0.875,1.759,0.043,2.425c5.364,3.907,6.531,9.255,6.296,15.426c-0.613,16.15-0.921,32.298-1.353,48.449
	c-0.099,3.733-0.628,4.533-4.496,5.795c-8.27,2.694-16.755,3.218-25.306,2.695c-4.452-0.27-8.871-0.755-13.095-2.083
	c-4.667-1.469-5.182-2.19-5.059-6.817C25.441,78.46,25.66,70.23,25.879,61.997 M30.033,61.311
	c-0.165,6.215-0.332,12.426-0.496,18.641c-0.107,4.11,0.318,4.658,4.543,5.821c0.705,0.194,1.425,0.361,2.149,0.496
	c6.268,1.167,12.656,1.09,19.023,0.686c3.772-0.24,7.591-0.701,11.226-2.068c2.121-0.796,3.111-2.004,3.155-4.238
	c0.258-12.967,0.6-25.938,1.039-38.905c0.076-2.245-0.734-3.524-2.958-4.083c-0.869-0.219-1.721-0.508-2.604-0.681
	c-7.409-1.451-14.965-1.034-22.492-0.643c-2.868,0.148-5.75,0.727-8.568,1.51c-2.399,0.667-3.561,1.862-3.563,4.364
	C30.481,48.573,30.203,54.945,30.033,61.311 M50.272,17.994c-3.481,0.182-7.113,0.35-10.741,0.58
	c-0.728,0.046-1.484,0.241-2.156,0.525c-0.859,0.366-0.73,1.181-0.656,1.85c0.095,0.852,0.77,0.531,1.326,0.431
	c8.307-1.492,16.591-1.102,24.875-0.507c0.657,0.048,1.521,0.628,1.767-0.542c0.191-0.911-0.197-1.487-1.213-1.633
	c-0.568-0.081-1.122-0.268-1.691-0.292C57.997,18.253,54.208,18.131,50.272,17.994"/>
</svg>
